<svg width="48" height="48" viewBox="0 0 48 48" fill="none" xmlns="http://www.w3.org/2000/svg">
<mask id="mask0_13_975" style="mask-type:alpha" maskUnits="userSpaceOnUse" x="0" y="0" width="48" height="48">
<rect width="48" height="48" fill="#D9D9D9"/>
</mask>
<g mask="url(#mask0_13_975)">
<path d="M11.45 23.2L11.15 20.75C10.4833 20.5833 9.85833 20.3417 9.275 20.025C8.69167 19.7083 8.16667 19.3167 7.7 18.85L5.5 19.75L4 17.3L5.85 15.55C5.68333 14.8833 5.6 14.2333 5.6 13.6C5.6 12.9667 5.68333 12.3167 5.85 11.65L4 9.9L5.5 7.45L7.7 8.35C8.16667 7.88333 8.69167 7.49167 9.275 7.175C9.85833 6.85833 10.4833 6.61667 11.15 6.45L11.45 4H14.45L14.75 6.45C15.4167 6.61667 16.0417 6.85833 16.625 7.175C17.2083 7.49167 17.7333 7.88333 18.2 8.35L20.4 7.45L21.9 9.9L20 11.65C20.1667 12.2833 20.25 12.925 20.25 13.575C20.25 14.225 20.1667 14.8833 20 15.55L21.9 17.3L20.4 19.75L18.2 18.85C17.7333 19.35 17.2083 19.75 16.625 20.05C16.0417 20.35 15.4167 20.5833 14.75 20.75L14.45 23.2H11.45ZM12.95 18.2C14.2167 18.2 15.3 17.75 16.2 16.85C17.1 15.95 17.55 14.8667 17.55 13.6C17.55 12.3333 17.1 11.25 16.2 10.35C15.3 9.45 14.2167 9 12.95 9C11.6833 9 10.6 9.45 9.7 10.35C8.8 11.25 8.35 12.3333 8.35 13.6C8.35 14.8667 8.8 15.95 9.7 16.85C10.6 17.75 11.6833 18.2 12.95 18.2ZM32.2 46L31.5 43.15C30.6 42.9167 29.7417 42.5667 28.925 42.1C28.1083 41.6333 27.4 41.0333 26.8 40.3L24.1 41.15L22.2 37.9L24.3 36C24.0333 35.1333 23.9 34.2333 23.9 33.3C23.9 32.3667 24.0333 31.4667 24.3 30.6L22.2 28.75L24.1 25.5L26.8 26.25C27.4333 25.55 28.15 24.9583 28.95 24.475C29.75 23.9917 30.6 23.65 31.5 23.45L32.2 20.6H35.95L36.65 23.45C37.6167 23.5833 38.4917 23.9 39.275 24.4C40.0583 24.9 40.7667 25.5167 41.4 26.25L44.1 25.5L46 28.75L43.9 30.6C44.1667 31.4667 44.3 32.3667 44.3 33.3C44.3 34.2333 44.1667 35.1333 43.9 36L46 37.9L44.1 41.2L41.4 40.3C40.8 41.0667 40.0917 41.675 39.275 42.125C38.4583 42.575 37.5833 42.9167 36.65 43.15L35.95 46H32.2ZM34.1 40.25C36.0333 40.25 37.675 39.575 39.025 38.225C40.375 36.875 41.05 35.2333 41.05 33.3C41.05 31.3667 40.375 29.725 39.025 28.375C37.675 27.025 36.0333 26.35 34.1 26.35C32.1667 26.35 30.525 27.025 29.175 28.375C27.825 29.725 27.15 31.3667 27.15 33.3C27.15 35.2333 27.825 36.875 29.175 38.225C30.525 39.575 32.1667 40.25 34.1 40.25Z" fill="#004EAA"/>
</g>
</svg>
